<svg id="visual" viewBox="0 0 960 540" width="960" height="540" xmlns="http://www.w3.org/2000/svg" xmlns:xlink="http://www.w3.org/1999/xlink" version="1.1"><rect x="0" y="0" width="960" height="540" fill="#001220"></rect><defs><linearGradient id="grad1_0" x1="43.8%" y1="0%" x2="100%" y2="100%"><stop offset="14.444444444444446%" stop-color="#20c45f" stop-opacity="1"></stop><stop offset="85.55555555555554%" stop-color="#20c45f" stop-opacity="1"></stop></linearGradient></defs><defs><linearGradient id="grad1_1" x1="43.8%" y1="0%" x2="100%" y2="100%"><stop offset="14.444444444444446%" stop-color="#20c45f" stop-opacity="1"></stop><stop offset="85.55555555555554%" stop-color="#006874" stop-opacity="1"></stop></linearGradient></defs><defs><linearGradient id="grad1_2" x1="43.8%" y1="0%" x2="100%" y2="100%"><stop offset="14.444444444444446%" stop-color="#001220" stop-opacity="1"></stop><stop offset="85.55555555555554%" stop-color="#006874" stop-opacity="1"></stop></linearGradient></defs><defs><linearGradient id="grad2_0" x1="0%" y1="0%" x2="56.3%" y2="100%"><stop offset="14.444444444444446%" stop-color="#20c45f" stop-opacity="1"></stop><stop offset="85.55555555555554%" stop-color="#20c45f" stop-opacity="1"></stop></linearGradient></defs><defs><linearGradient id="grad2_1" x1="0%" y1="0%" x2="56.3%" y2="100%"><stop offset="14.444444444444446%" stop-color="#006874" stop-opacity="1"></stop><stop offset="85.55555555555554%" stop-color="#20c45f" stop-opacity="1"></stop></linearGradient></defs><defs><linearGradient id="grad2_2" x1="0%" y1="0%" x2="56.3%" y2="100%"><stop offset="14.444444444444446%" stop-color="#006874" stop-opacity="1"></stop><stop offset="85.55555555555554%" stop-color="#001220" stop-opacity="1"></stop></linearGradient></defs><g transform="translate(960, 0)"><path d="M0 486C-45.6 433.1 -91.2 380.2 -149.6 361.2C-208 342.3 -279.2 357.3 -333.8 333.8C-388.3 310.2 -426.4 248 -449 186C-471.6 123.9 -478.8 62 -486 0L0 0Z" fill="#003a52"></path><path d="M0 324C-30.4 288.7 -60.8 253.5 -99.8 240.8C-138.7 228.2 -186.1 238.2 -222.5 222.5C-258.9 206.8 -284.3 165.4 -299.3 124C-314.4 82.6 -319.2 41.3 -324 0L0 0Z" fill="#009778"></path><path d="M0 162C-15.2 144.4 -30.4 126.7 -49.9 120.4C-69.3 114.1 -93.1 119.1 -111.3 111.3C-129.4 103.4 -142.1 82.7 -149.7 62C-157.2 41.3 -159.6 20.7 -162 0L0 0Z" fill="#20c45f"></path></g><g transform="translate(0, 540)"><path d="M0 -486C50.4 -443.4 100.9 -400.8 156.9 -378.8C212.9 -356.8 274.6 -355.3 327.4 -327.4C380.2 -299.4 424.1 -245 449 -186C474 -127 480 -63.5 486 0L0 0Z" fill="#003a52"></path><path d="M0 -324C33.6 -295.6 67.2 -267.2 104.6 -252.5C142 -237.9 183.1 -236.9 218.3 -218.3C253.4 -199.6 282.7 -163.3 299.3 -124C316 -84.7 320 -42.3 324 0L0 0Z" fill="#009778"></path><path d="M0 -162C16.8 -147.8 33.6 -133.6 52.3 -126.3C71 -118.9 91.5 -118.4 109.1 -109.1C126.7 -99.8 141.4 -81.7 149.7 -62C158 -42.3 160 -21.2 162 0L0 0Z" fill="#20c45f"></path></g></svg>